<?xml version="1.0" encoding="utf-8"?>
<!-- Generator: Adobe Illustrator 18.1.1, SVG Export Plug-In . SVG Version: 6.00 Build 0)  -->
<svg version="1.1" id="Layer_1" xmlns="http://www.w3.org/2000/svg" xmlns:xlink="http://www.w3.org/1999/xlink" x="0px" y="0px"
	 viewBox="0 0 765.1 121.9" enable-background="new 0 0 765.1 121.9" xml:space="preserve">
<g>
	<g>
		<g opacity="0.75">
			<path d="M115.1,44.3c0.6-5.8-2.4-14-6.6-17.5c-5.9-4.8-13.5-7.1-21.1-7.1H41l-22,92h35l6-27.2l8,28.2h38.5L92,76.2
				C110.5,70.7,113.6,58.3,115.1,44.3z M79.8,53.5c-1.2,6.1-13.6,6.3-13.6,6.3l3.3-14C75.7,44.3,80.7,49.2,79.8,53.5z"/>
		</g>
		<g>
			<path fill="#BB1C20" d="M108.1,37.3c0.6-5.8-2.4-14-6.6-17.5C95.5,15,88,12.8,80.3,12.8H34l-22,92h35l6-27.2l8,28.2h38.5L85,69.2
				C103.5,63.7,106.6,51.3,108.1,37.3z M72.8,46.5c-1.2,6.1-13.6,6.3-13.6,6.3l3.3-14C68.7,37.3,73.7,42.2,72.8,46.5z"/>
		</g>
	</g>
	<g>
		<g opacity="0.75">
			<path d="M129,19.3h32l-11.9,52.5c-0.4,2-0.8,5.4-0.4,7.4c0.6,2.9,3.6,4.9,7.2,5c4,0.2,8.6,1.6,11.6-7.9s14-57,14-57H213
				l-13.3,60.8c-3.2,16.1-22.8,35.7-48.2,35.7c-32.5,0-37.9-20-35.9-34.5C117.5,66.8,129,19.3,129,19.3z"/>
		</g>
		<g>
			<path fill="#BB1C20" d="M122,12.3h32l-11.9,52.5c-0.4,2-0.8,5.4-0.4,7.4c0.6,2.9,3.6,4.9,7.2,5c4,0.2,8.6,1.6,11.6-7.9
				s14-57,14-57H206l-13.3,60.8c-3.2,16.1-22.8,35.7-48.2,35.7c-32.5,0-37.9-20-35.9-34.5C110.5,59.8,122,12.3,122,12.3z"/>
		</g>
	</g>
	<g>
		<g opacity="0.75">
			<path d="M289,26.8c0,0-27-22.3-60,1.7s-6.5,46.3-6.5,46.3s5.4,5.8,15.9,5.8s-0.4,21.7-25.4,0.2l-16.5,24.5
				c1.5,3.5,34.7,17,56.8,5.5c5.2-2.7,16.5-11,21.6-19.8c7.6-13.6,5-20.6,4.8-22.1c-1-8-18.5-13.4-27.9-15.6
				c-1.9-0.4-3.4-2.1-3.4-4.1c0.1-1.8,1.4-4.1,6.6-4c10.5,0.1,18.5,7.3,18.5,7.3L289,26.8z"/>
		</g>
		<g>
			<path fill="#BB1C20" d="M282,19.8c0,0-27-22.3-60,1.7s-6.5,46.3-6.5,46.3s5.4,5.8,15.9,5.8S231,95.3,206,73.8l-16.5,24.5
				c1.5,3.5,34.7,17,56.8,5.5c5.2-2.7,16.5-11,21.6-19.8c7.6-13.6,5-20.6,4.8-22.1c-1-8-18.5-13.4-27.9-15.6
				c-1.9-0.4-3.4-2.1-3.4-4.1c0.1-1.8,1.4-4.1,6.6-4c10.5,0.1,18.5,7.3,18.5,7.3L282,19.8z"/>
		</g>
	</g>
	<g>
		<g opacity="0.75">
			<polygon points="298,20.8 333,20.8 325,53.8 344,53.8 352,20.8 385,20.8 360.5,116.6 327.5,117 335.5,83.8 316,83.8 307.5,116.8 
				276,116.8 			"/>
		</g>
		<g>
			<polygon fill="#BB1C20" points="291,13.8 326,13.8 318,46.8 337,46.8 345,13.8 378,13.8 353.5,109.6 320.5,110 328.5,76.8 
				309,76.8 300.5,109.8 269,109.8 			"/>
		</g>
	</g>
	<g>
		<g opacity="0.75">
			<polygon points="398,21.8 433,21.8 425,54.8 444,54.8 452,21.8 485,21.8 460.5,118.1 427.5,118.2 435.5,84.8 416,84.8 
				407.5,117.8 376,117.8 			"/>
		</g>
		<g>
			<polygon fill="#E2A403" points="391,14.8 426,14.8 418,47.8 437,47.8 445,14.8 478,14.8 453.5,111.1 420.5,111.2 428.5,77.8 
				409,77.8 400.5,110.8 369,110.8 			"/>
		</g>
	</g>
	<g>
		<g opacity="0.75">
			<path d="M579,38.8c-10-16.4-33.5-17.4-38-17.5c-23.4-0.5-46,14.3-59,38.5c-1.7,4-5.9,15.3-2.5,29c0.6,2.3,2.8,10.6,8.7,17.2
				c13.2,14.5,40.1,14.6,58.2,6.2C574.1,99.2,592.5,60.9,579,38.8z M547.9,72.2c-3.4,9.8-13.8,16-22.7,15.5
				c-1.8-0.1-4.8-0.3-7.5-2.4c-6.2-4.9-4.2-15.1-4-15.6c4.4-11.9,13.2-19.7,21.8-19.4c1,0,6.7,0.3,10.5,4.7
				C551.6,61.2,548.3,70.9,547.9,72.2z"/>
		</g>
		<g>
			<radialGradient id="SVGID_1_" cx="523.8896" cy="62.5787" r="50.5181" gradientUnits="userSpaceOnUse">
				<stop  offset="0.2808" style="stop-color:#FFFFFF"/>
				<stop  offset="0.2916" style="stop-color:#FEFCF7"/>
				<stop  offset="0.3747" style="stop-color:#F8E8BF"/>
				<stop  offset="0.4602" style="stop-color:#F2D68D"/>
				<stop  offset="0.5464" style="stop-color:#EDC662"/>
				<stop  offset="0.6333" style="stop-color:#E9BA40"/>
				<stop  offset="0.7213" style="stop-color:#E6B025"/>
				<stop  offset="0.8107" style="stop-color:#E4A912"/>
				<stop  offset="0.9024" style="stop-color:#E2A507"/>
				<stop  offset="1" style="stop-color:#E2A403"/>
			</radialGradient>
			<path fill="url(#SVGID_1_)" d="M572,31.8c-10-16.4-33.5-17.4-38-17.5c-23.4-0.5-46,14.3-59,38.5c-1.7,4-5.9,15.3-2.5,29
				c0.6,2.3,2.8,10.6,8.7,17.2c13.2,14.5,40.1,14.6,58.2,6.2C567.1,92.2,585.5,53.9,572,31.8z M540.9,65.2
				c-3.4,9.8-13.8,16-22.7,15.5c-1.8-0.1-4.8-0.3-7.5-2.4c-6.2-4.9-4.2-15.1-4-15.6c4.4-11.9,13.2-19.7,21.8-19.4
				c1,0,6.7,0.3,10.5,4.7C544.6,54.2,541.3,63.9,540.9,65.2z"/>
		</g>
	</g>
	<polygon fill="#A73437" points="523.2,28.7 522.2,66 538.9,82.8 527.2,62.6 	"/>
	<path fill="none" stroke="#000000" stroke-width="2" stroke-miterlimit="10" d="M513.4,7c-9.8,1.7-20.5,11.7-20.5,11.7"/>
	<path fill="none" stroke="#000000" stroke-width="2" stroke-miterlimit="10" d="M509.4,1c-9.8,1.7-20.5,11.7-20.5,11.7"/>
	<path fill="none" stroke="#000000" stroke-width="2" stroke-miterlimit="10" d="M549.7,115c4.8-1.4,8-3.4,10.2-5.2
		c3.5-2.9,7.5-7.8,7.5-7.8l0,0"/>
	<path fill="none" stroke="#000000" stroke-width="2" stroke-miterlimit="10" d="M553.7,121c4.8-1.4,8-3.4,10.2-5.2
		c3.5-2.9,7.5-7.8,7.5-7.8l0,0"/>
	<polygon fill="#FFFFFF" stroke="#FFFFFF" stroke-miterlimit="10" points="1,16.3 50,16.3 49.2,18.7 	"/>
	<polygon fill="#29ABE2" stroke="#29ABE2" stroke-miterlimit="10" points="0,15.3 49,15.3 48.2,17.7 	"/>
	<polygon fill="#FFFFFF" stroke="#FFFFFF" stroke-miterlimit="10" points="43.7,32.2 42.5,35.2 8.9,33.7 	"/>
	<polygon fill="#29ABE2" stroke="#29ABE2" stroke-miterlimit="10" points="42.7,31.2 41.5,34.2 7.9,32.7 	"/>
	<polygon fill="#FFFFFF" stroke="#FFFFFF" stroke-miterlimit="10" points="30,70.3 6,70.3 27.2,73 	"/>
	<polygon fill="#29ABE2" stroke="#29ABE2" stroke-miterlimit="10" points="29,69.3 5,69.3 26.2,72 	"/>
	<polygon fill="#FFFFFF" stroke="#FFFFFF" stroke-miterlimit="10" points="133,18.3 112,18.3 130.9,21 	"/>
	<polygon fill="#29ABE2" stroke="#29ABE2" stroke-miterlimit="10" points="132,17.3 111,17.3 129.9,20 	"/>
	<polygon fill="#FFFFFF" stroke="#FFFFFF" stroke-miterlimit="10" points="236.8,55 184,52.5 238.5,51.7 	"/>
	<polygon fill="#29ABE2" stroke="#29ABE2" stroke-miterlimit="10" points="235.8,54 183,51.5 237.5,50.7 	"/>
	<polygon fill="#FFFFFF" stroke="#FFFFFF" stroke-miterlimit="10" points="236,61.3 210,61.3 234.9,64 	"/>
	<polygon fill="#29ABE2" stroke="#29ABE2" stroke-miterlimit="10" points="235,60.3 209,60.3 233.9,63 	"/>
	<polygon fill="#FFFFFF" stroke="#FFFFFF" stroke-miterlimit="10" points="298,51.7 296.9,55 267.7,53.3 	"/>
	<polygon fill="#29ABE2" stroke="#29ABE2" stroke-miterlimit="10" points="297,50.7 295.9,54 266.7,52.3 	"/>
	<g>
		<g opacity="0.75">
			<path d="M598.5,21.6h32l-11.9,52.5c-0.4,2-0.8,5.4-0.4,7.4c0.6,2.9,3.6,4.9,7.2,5c4,0.2,8.6,1.6,11.6-7.9s14-57,14-57h31.5
				l-13.3,60.8c-3.2,16.1-22.8,35.7-48.2,35.7c-32.5,0-37.9-20-35.9-34.5S598.5,21.6,598.5,21.6z"/>
		</g>
		<g>
			<path fill="#E2A403" d="M591.5,14.6h32l-11.9,52.5c-0.4,2-0.8,5.4-0.4,7.4c0.6,2.9,3.6,4.9,7.2,5c4,0.2,8.6,1.6,11.6-7.9
				s14-57,14-57h31.5l-13.3,60.8c-3.2,16.1-22.8,35.7-48.2,35.7c-32.5,0-37.9-20-35.9-34.5S591.5,14.6,591.5,14.6z"/>
		</g>
	</g>
	<g>
		<g opacity="0.75">
			<path d="M765.1,48.3c0.6-5.8-2.4-14-6.6-17.5c-5.9-4.8-13.5-7.1-21.1-7.1H691l-22,92h35l6-27.2l8,28.2h38.5L742,80.2
				C760.5,74.7,763.6,62.3,765.1,48.3z M729.8,57.5c-1.2,6.1-13.6,6.3-13.6,6.3l3.3-14C725.7,48.3,730.7,53.2,729.8,57.5z"/>
		</g>
		<g>
			<path fill="#E2A403" d="M758.1,41.3c0.6-5.8-2.4-14-6.6-17.5c-5.9-4.8-13.5-7.1-21.1-7.1H684l-22,92h35l6-27.2l8,28.2h38.5
				L735,73.2C753.5,67.7,756.6,55.3,758.1,41.3z M722.8,50.5c-1.2,6.1-13.6,6.3-13.6,6.3l3.3-14C718.7,41.3,723.7,46.2,722.8,50.5z"
				/>
		</g>
	</g>
</g>
</svg>
