<?xml version="1.0" encoding="utf-8"?>
<!-- Generator: Adobe Illustrator 18.1.1, SVG Export Plug-In . SVG Version: 6.00 Build 0)  -->
<svg version="1.1" id="Layer_1" xmlns="http://www.w3.org/2000/svg" xmlns:xlink="http://www.w3.org/1999/xlink" x="0px" y="0px"
	 viewBox="0 0 723.7 106.6" enable-background="new 0 0 723.7 106.6" xml:space="preserve">
<g>
	<linearGradient id="SVGID_1_" gradientUnits="userSpaceOnUse" x1="0" y1="53.3135" x2="723.7049" y2="53.3135">
		<stop  offset="0.1022" style="stop-color:#FFFFFF;stop-opacity:0"/>
		<stop  offset="0.367" style="stop-color:#8A8A8A;stop-opacity:0.6217"/>
		<stop  offset="0.5281" style="stop-color:#414041"/>
		<stop  offset="0.9233" style="stop-color:#FFFFFF;stop-opacity:0"/>
	</linearGradient>
	<polygon fill="url(#SVGID_1_)" points="723.1,56.1 723.1,50.1 719.5,50.1 719.5,48.4 713.6,48.4 713.6,43.9 714.5,43.9 714.5,42.6 
		709.2,42.6 709.2,41.8 700.4,41.8 700.4,43.4 696.6,43.4 696.6,58.8 695.9,58.8 695,59.8 692.1,59.8 692.1,66.2 685.7,66.2 
		685.7,70.8 682.2,70.8 682.2,43.7 681.8,43.2 679.5,43.2 679.2,42.8 674.6,42.8 674.6,41.8 670.8,41.8 670.8,38.2 669.8,38.2 
		669.8,41.8 669.1,41.8 669.1,43.1 663,43.1 663,66.4 661.9,64.6 661.9,62.5 659.9,62.5 659.9,64.6 658.5,64.6 658.5,53.7 
		654.9,53.7 654.9,32.2 647.6,32.2 647.1,30.8 643.5,30.8 642.9,32.1 636.2,32.1 636.2,63.2 629.3,63.2 628,64.4 628,63 626.8,63 
		626.8,60.4 620,60.4 620,62.6 616.7,62.6 616.7,59.4 616.2,58.9 616.2,53.5 614.2,53.5 614.2,49.4 608.9,45.1 608.9,42.5 
		606.5,42.5 606.5,44.9 601.5,49.1 601.5,53.9 599.1,53.9 599.1,57.6 597.4,57.6 597.4,56.8 595.7,56.8 595.7,59 594.9,59 
		594.9,60.4 593.3,60.4 592.3,61.6 592.3,65.4 590.1,65.4 590.1,66.6 588.6,66.6 588.6,65.4 584.5,65.4 584.5,68.8 584.1,68.8 
		584.1,66.6 583,66.6 583,46.5 579.7,46.5 579.7,45.3 574.7,45.3 574.7,44.3 573.8,44.3 573.8,45.3 571.8,45.3 571.8,45.9 
		567.6,45.9 567.6,62.4 567.4,62.4 567.4,52.6 565.3,52.6 565.3,50.9 559.1,50.9 559.1,52.7 556.9,52.7 556.9,55.5 555,55.5 
		555,54.9 551.8,54.9 551.8,52.3 548.1,52.3 548.1,49.6 543,49.6 543,52.2 540.5,52.2 540.5,45.3 532.7,45.3 532.7,42.6 529.2,42.6 
		529.2,53.5 526.7,53.5 526.7,54.9 524.5,54.9 524.5,56.2 524.5,56.2 524.5,54 523.9,53.4 523.9,49.7 515.5,49.7 515.5,13.4 
		514.7,12.5 509,12.5 509,10.2 508,10.2 508,12.3 499,12.3 499,13.5 498.2,13.5 498.2,13.1 496.9,13.1 496.9,36.8 493.1,36.8 
		493.1,38.5 489.7,38.5 489.7,48.7 488,48.7 488,49.4 485.5,49.4 485.5,52.7 483.1,52.7 483.1,54.3 480.6,54.3 480.6,58.3 
		480.2,58.3 480.2,57.1 478.6,57.1 478.6,37.5 472.4,37.5 472.4,35.4 472.1,35.4 472.1,30.5 471.2,30.5 471.2,27.4 469.5,27.4 
		469.5,24.6 464.8,24.6 464.8,25.5 462.7,25.5 462.7,28.1 461.8,28.8 461.8,30.1 460.6,30.1 460.6,29.4 459.8,29.4 459.8,30.1 
		459,30.1 459,28.7 457.7,28.7 457.7,30.1 452.2,30.1 451.2,30.9 451.2,33.2 450.2,33.2 450.2,31.4 449.3,30.4 446.2,30.4 446.2,28 
		444.6,28 444.6,30.4 443.2,30.4 443.2,33.1 442.2,33.1 442,33.6 442,28.8 440.9,28.8 440.9,29.6 433.8,29.6 433.8,28.5 432.8,28.5 
		432.8,29.6 430.7,29.6 429.1,30.1 429.1,43.2 428,43.2 428,15.2 427,14.1 417.2,14.1 416.7,13.5 416,13.5 416,12.6 416.3,12.3 
		416.3,9.9 414.8,8.2 413.7,8.2 413.3,3 412.7,8.3 411.3,8.3 410,9.8 410,12.7 410.7,12.7 410.7,13.9 409.7,13.9 409.7,35.6 
		408.3,35.6 408.3,13.6 399.7,13.6 399.7,14.3 398.3,14.3 398.3,25.9 397.1,25.9 391.2,37.9 391.2,49.1 390.5,49.1 389.1,47.7 
		389.1,36.3 387.8,36.3 387.8,34.3 382.6,23.9 381.7,23.9 381.7,22.6 378.7,22.6 378.7,23.8 377.7,23.8 373.2,34.2 373.2,36.1 
		372,36.1 372,47.8 371.7,47.8 371.7,37.8 370.7,37.5 370.7,36.2 369.5,36.2 369.5,37.4 364,37.4 364,36.6 363.3,36.6 362.2,37.8 
		362.2,47.8 361.4,47.8 359,50.6 359,52.3 358.5,52.4 358.5,60.2 356.9,60.2 356.9,62.7 356.2,62.7 356.2,17.1 354.9,17.1 
		354.9,14.7 349.7,1.5 348.5,1.5 348.5,0 345.1,0 345.1,1.6 344,1.6 338,14.8 338,17.3 336.6,17.3 336.6,31.8 334.7,33.9 
		334.2,33.9 334.2,33.3 326.7,33.3 326.7,50.6 325.7,50.6 325.7,44.1 325.5,44.1 325.5,33.6 324.7,33.6 324.7,32.6 325.3,32.6 
		325.3,30.4 324.1,29.2 322.9,29.2 322.4,25 322,29.1 321,29.1 319.8,30.4 319.8,32.3 320,32.5 320,33.3 319.4,33.3 319,33.7 
		311.5,33.7 311.5,29.9 302.8,29.9 302.8,33.9 301,33.9 301,74.6 300.2,74.6 300.2,64.7 299,64.7 299,49.9 297.9,49.9 297.3,48.7 
		296.6,48.7 296.6,46.6 295.5,45.4 295.5,41.6 292.4,41.6 292.4,42.8 291.5,42.8 291.5,41.7 290.5,41.7 290.5,9.5 288.7,8.8 
		286.2,8.8 286.2,7.5 285.1,7.5 285.1,8.8 276.9,8.8 276.9,7.9 275.7,7.9 275.7,39.4 272.8,39.4 272.8,42.5 269.5,42.5 269.5,52.2 
		265.6,52.2 265.6,53.5 264,53.5 264,37.6 261.4,34.5 259.6,34.5 258.2,33 252.9,33 252.9,7.8 251.8,7 251.8,3.7 249.4,3.7 
		249.4,2.5 244,2.5 244,6 242.1,6 242.1,10 241,10 241,26.5 239.6,26.5 239.6,30.6 239.2,30.6 239.2,32.4 234.3,32.4 233.6,33.2 
		233.6,43.8 231.7,43.8 231.7,45.3 227.2,45.3 226.1,46.5 226.1,51.7 223.2,51.7 223.2,47.6 220.8,44.8 211.1,44.8 209.6,46.5 
		209.6,61.7 206.1,61.7 206.1,58.7 204.2,58.7 204.2,55.9 203.1,55.9 203.1,54.6 200.6,54.6 200.6,57 199.7,57 199.7,53.3 
		195.8,53.3 195.8,56.3 194.6,56.3 194.6,35.3 192.6,35.3 191.8,34.4 181.4,34.4 181.4,39.1 180.8,39.9 180.8,56.4 179.4,56.4 
		178.4,57.6 178.4,59.2 175.8,59.2 175.8,43.6 172.1,43.6 172.1,44.6 171.5,44.6 171.5,48.4 169.1,48.4 169.1,43.7 168.5,43 
		160.2,43 160.2,39.3 159.8,38.8 154.6,38.8 154.6,41.5 154,42.2 154,44.6 151.5,44.6 150.6,45.6 150.6,47.7 145.4,47.7 145.4,51.6 
		144.4,52.8 142.6,52.8 142.6,54 141.7,54 141.7,58.3 139.7,58.3 139.7,53.8 138.9,52.9 131.7,52.9 131.7,51.4 131.1,50.7 
		131.1,29.5 126.3,29.5 126.3,28.8 124.1,28.8 124.1,27.5 122.9,27.5 122.9,28.7 117.2,28.7 117.2,30.3 113.4,30.3 113.4,48 
		112.5,48 112.5,59.9 111.7,59.9 111.7,54.3 107,54.3 107,55.8 105.3,55.8 105.3,54.3 100,54.3 100,55.5 99.5,55.5 99.5,52.7 
		98.6,52.7 98.6,55.5 97.8,55.5 97.8,54.7 96.2,54.7 96.2,51.9 90.1,51.9 90.1,54.8 88.2,54.8 88.2,67.7 87.3,67.7 87.3,48.9 
		83.9,48.9 83.9,70.2 82.4,70.2 82.4,62.5 81.4,62.5 81.4,48 77.2,48 77.2,60.7 76.2,60.7 76.2,56.8 72.9,56.8 72.9,55.6 70.9,55.6 
		70.9,47.9 63,47.9 63,51.3 61.7,51.3 61.7,56.2 60.6,56.2 60.6,57.2 61.4,57.2 61.4,57.9 60.1,57.9 60.1,53.6 58.2,53.6 58.2,52 
		49.9,52 49.9,53.8 47.7,53.8 47.7,57.3 46,57.3 46,43.7 41.1,43.7 41.1,38.6 39.3,38.6 39.3,37.5 38.1,37.5 38.1,35.9 34.5,35.9 
		34.5,38.2 31.9,38.2 31.9,39.4 26.6,39.4 26.6,53.3 24.9,53.3 24.9,50.6 22.6,50.6 22.6,53.2 18.2,62.1 18.2,59.5 17.7,58.6 
		3.7,58.6 3.2,58.4 3.2,55 1.7,55 1.7,52.5 0,52.5 0,106.6 52.6,106.6 681.6,106.6 723.7,106.6 723.7,56.1 	"/>
</g>
</svg>
